<?xml version="1.0" encoding="UTF-8"?>
<svg xmlns="http://www.w3.org/2000/svg" xmlns:xlink="http://www.w3.org/1999/xlink" width="227.28" height="67.21" viewBox="0 0 227.28 67.21">
<path fill-rule="nonzero" fill="rgb(100%, 100%, 100%)" fill-opacity="1" d="M 227.28125 67.210938 L 0 67.210938 L 0 0 L 227.28125 0 L 227.28125 67.210938 M 0.101562 0.101562 L 0.101562 67.109375 L 227.183594 67.109375 L 227.183594 0.101562 L 0.101562 0.101562 "/>
<path fill-rule="nonzero" fill="rgb(1.199341%, 16.899109%, 27.49939%)" fill-opacity="1" d="M 86.976562 18.683594 L 83.554688 28.089844 L 82.195312 28.089844 L 79.75 21.414062 C 78.957031 23.605469 78.09375 25.90625 77.308594 28.089844 L 75.964844 28.089844 L 72.539062 18.683594 L 74.371094 18.683594 L 76.644531 24.886719 L 78.914062 18.683594 L 80.601562 18.683594 L 82.875 24.886719 L 85.148438 18.683594 L 86.976562 18.683594 "/>
<path fill-rule="nonzero" fill="rgb(1.199341%, 16.899109%, 27.49939%)" fill-opacity="1" d="M 114.195312 21.230469 L 112.453125 21.230469 L 112.453125 20.496094 L 112.363281 20.40625 L 106.601562 20.40625 L 106.511719 20.496094 L 106.511719 26.273438 L 106.601562 26.363281 L 112.363281 26.363281 L 112.453125 26.273438 L 112.453125 24.496094 L 110.328125 24.496094 L 110.328125 22.769531 L 114.195312 22.769531 L 114.195312 26.273438 C 114.195312 27.277344 113.371094 28.089844 112.363281 28.089844 L 106.601562 28.089844 C 105.597656 28.089844 104.785156 27.277344 104.785156 26.273438 L 104.785156 20.496094 C 104.785156 19.492188 105.597656 18.683594 106.601562 18.683594 L 112.363281 18.683594 C 113.371094 18.683594 114.195312 19.492188 114.195312 20.496094 L 114.195312 21.230469 "/>
<path fill-rule="nonzero" fill="rgb(1.199341%, 16.899109%, 27.49939%)" fill-opacity="1" d="M 128.351562 20.40625 L 121.441406 20.40625 L 121.441406 22.523438 L 127.007812 22.523438 L 127.007812 24.246094 L 121.441406 24.246094 L 121.441406 26.363281 L 128.351562 26.363281 L 128.351562 28.089844 L 119.703125 28.089844 L 119.703125 18.683594 L 128.351562 18.683594 L 128.351562 20.40625 "/>
<path fill-rule="nonzero" fill="rgb(1.199341%, 16.899109%, 27.49939%)" fill-opacity="1" d="M 141.21875 18.683594 L 142.957031 18.683594 L 142.957031 28.089844 L 141.074219 28.089844 L 135.277344 21.191406 L 135.277344 28.089844 L 133.550781 28.089844 L 133.550781 18.683594 L 135.433594 18.683594 L 141.21875 25.578125 L 141.21875 18.683594 "/>
<path fill-rule="nonzero" fill="rgb(1.199341%, 16.899109%, 27.49939%)" fill-opacity="1" d="M 148.027344 18.683594 L 149.753906 18.683594 L 149.753906 28.089844 L 148.027344 28.089844 L 148.027344 18.683594 "/>
<path fill-rule="nonzero" fill="rgb(1.199341%, 16.899109%, 27.49939%)" fill-opacity="1" d="M 162.734375 18.683594 L 164.472656 18.683594 L 164.472656 28.089844 L 162.59375 28.089844 L 156.792969 21.191406 L 156.792969 28.089844 L 155.066406 28.089844 L 155.066406 18.683594 L 156.949219 18.683594 L 162.734375 25.578125 L 162.734375 18.683594 "/>
<path fill-rule="nonzero" fill="rgb(1.199341%, 16.899109%, 27.49939%)" fill-opacity="1" d="M 179.007812 21.230469 L 177.273438 21.230469 L 177.273438 20.496094 L 177.179688 20.40625 L 171.417969 20.40625 L 171.328125 20.496094 L 171.328125 26.273438 L 171.417969 26.363281 L 177.179688 26.363281 L 177.273438 26.273438 L 177.273438 24.496094 L 175.140625 24.496094 L 175.140625 22.769531 L 179.007812 22.769531 L 179.007812 26.273438 C 179.007812 27.277344 178.1875 28.089844 177.179688 28.089844 L 171.417969 28.089844 C 170.414062 28.089844 169.601562 27.277344 169.601562 26.273438 L 169.601562 20.496094 C 169.601562 19.492188 170.414062 18.683594 171.417969 18.683594 L 177.179688 18.683594 C 178.1875 18.683594 179.007812 19.492188 179.007812 20.496094 L 179.007812 21.230469 "/>
<path fill-rule="nonzero" fill="rgb(1.199341%, 16.899109%, 27.49939%)" fill-opacity="1" d="M 192.996094 20.40625 L 186.085938 20.40625 L 186.085938 22.523438 L 191.652344 22.523438 L 191.652344 24.246094 L 186.085938 24.246094 L 186.085938 26.363281 L 192.996094 26.363281 L 192.996094 28.089844 L 184.347656 28.089844 L 184.347656 18.683594 L 192.996094 18.683594 L 192.996094 20.40625 "/>
<path fill-rule="nonzero" fill="rgb(1.199341%, 16.899109%, 27.49939%)" fill-opacity="1" d="M 205.703125 18.683594 L 207.4375 18.683594 L 207.4375 28.089844 L 205.558594 28.089844 L 199.757812 21.191406 L 199.757812 28.089844 L 198.03125 28.089844 L 198.03125 18.683594 L 199.914062 18.683594 L 205.703125 25.578125 L 205.703125 18.683594 "/>
<path fill-rule="nonzero" fill="rgb(1.199341%, 16.899109%, 27.49939%)" fill-opacity="1" d="M 92.691406 23.203125 L 93.628906 20.496094 L 93.722656 20.40625 L 96.582031 20.40625 L 96.671875 20.496094 L 97.613281 23.203125 Z M 98.375 20.496094 C 97.996094 19.386719 97.5625 18.683594 96.558594 18.683594 L 93.722656 18.683594 C 92.71875 18.683594 92.285156 19.386719 91.90625 20.496094 L 89.179688 28.089844 L 90.964844 28.089844 L 92.105469 24.925781 L 98.199219 24.925781 L 99.351562 28.089844 L 101.101562 28.089844 L 98.375 20.496094 "/>
<path fill-rule="nonzero" fill="rgb(1.199341%, 16.899109%, 27.49939%)" fill-opacity="1" d="M 77.925781 35.503906 L 78.761719 35.503906 L 78.761719 40.0625 C 78.761719 40.621094 78.3125 41.066406 77.757812 41.066406 L 74.199219 41.066406 C 73.644531 41.066406 73.195312 40.621094 73.195312 40.0625 L 73.195312 35.503906 L 74.03125 35.503906 L 74.03125 40.0625 C 74.03125 40.15625 74.109375 40.230469 74.199219 40.230469 L 77.757812 40.230469 C 77.847656 40.230469 77.925781 40.15625 77.925781 40.0625 L 77.925781 35.503906 "/>
<path fill-rule="nonzero" fill="rgb(1.199341%, 16.899109%, 27.49939%)" fill-opacity="1" d="M 85.550781 35.503906 L 86.386719 35.503906 L 86.386719 41.066406 L 85.398438 41.066406 L 81.65625 36.613281 L 81.65625 41.066406 L 80.820312 41.066406 L 80.820312 35.503906 L 81.8125 35.503906 L 85.550781 39.953125 L 85.550781 35.503906 "/>
<path fill-rule="nonzero" fill="rgb(1.199341%, 16.899109%, 27.49939%)" fill-opacity="1" d="M 88.472656 35.503906 L 89.304688 35.503906 L 89.304688 41.066406 L 88.472656 41.066406 L 88.472656 35.503906 "/>
<path fill-rule="nonzero" fill="rgb(1.199341%, 16.899109%, 27.49939%)" fill-opacity="1" d="M 96.542969 35.503906 L 97.503906 35.503906 L 94.296875 41.066406 L 93.460938 41.066406 L 90.246094 35.503906 L 91.210938 35.503906 L 93.878906 40.125 L 96.542969 35.503906 "/>
<path fill-rule="nonzero" fill="rgb(1.199341%, 16.899109%, 27.49939%)" fill-opacity="1" d="M 103.371094 36.335938 L 99.101562 36.335938 L 99.101562 37.867188 L 102.535156 37.867188 L 102.535156 38.703125 L 99.101562 38.703125 L 99.101562 40.230469 L 103.371094 40.230469 L 103.371094 41.066406 L 98.269531 41.066406 L 98.269531 35.503906 L 103.371094 35.503906 L 103.371094 36.335938 "/>
<path fill-rule="nonzero" fill="rgb(1.199341%, 16.899109%, 27.49939%)" fill-opacity="1" d="M 106.210938 36.34375 L 106.210938 38.246094 L 109.9375 38.246094 C 110.027344 38.246094 110.109375 38.167969 110.109375 38.078125 L 110.109375 36.515625 C 110.109375 36.421875 110.027344 36.34375 109.9375 36.34375 Z M 110.941406 38.078125 C 110.941406 38.625 110.492188 39.082031 109.9375 39.082031 L 109.371094 39.082031 L 110.941406 40.949219 L 110.941406 41.066406 L 109.953125 41.066406 L 108.28125 39.082031 L 106.382812 39.082031 L 106.210938 39.066406 L 106.210938 41.066406 L 105.378906 41.066406 L 105.378906 35.507812 L 109.9375 35.507812 C 110.492188 35.507812 110.941406 35.964844 110.941406 36.515625 L 110.941406 38.078125 "/>
<path fill-rule="nonzero" fill="rgb(1.199341%, 16.899109%, 27.49939%)" fill-opacity="1" d="M 151.5625 36.34375 L 151.5625 38.246094 L 155.289062 38.246094 C 155.382812 38.246094 155.460938 38.167969 155.460938 38.078125 L 155.460938 36.515625 C 155.460938 36.421875 155.382812 36.34375 155.289062 36.34375 Z M 156.292969 38.078125 C 156.292969 38.625 155.847656 39.082031 155.289062 39.082031 L 154.726562 39.082031 L 156.292969 40.949219 L 156.292969 41.066406 L 155.304688 41.066406 L 153.636719 39.082031 L 151.734375 39.082031 L 151.5625 39.066406 L 151.5625 41.066406 L 150.730469 41.066406 L 150.730469 35.507812 L 155.289062 35.507812 C 155.847656 35.507812 156.292969 35.964844 156.292969 36.515625 L 156.292969 38.078125 "/>
<path fill-rule="nonzero" fill="rgb(1.199341%, 16.899109%, 27.49939%)" fill-opacity="1" d="M 187.945312 36.34375 L 187.945312 38.246094 L 191.671875 38.246094 C 191.765625 38.246094 191.84375 38.167969 191.84375 38.078125 L 191.84375 36.515625 C 191.84375 36.421875 191.765625 36.34375 191.671875 36.34375 Z M 192.675781 38.078125 C 192.675781 38.625 192.226562 39.082031 191.671875 39.082031 L 191.105469 39.082031 L 192.675781 40.949219 L 192.675781 41.066406 L 191.6875 41.066406 L 190.015625 39.082031 L 188.117188 39.082031 L 187.945312 39.066406 L 187.945312 41.066406 L 187.109375 41.066406 L 187.109375 35.507812 L 191.671875 35.507812 C 192.226562 35.507812 192.675781 35.964844 192.675781 36.515625 L 192.675781 38.078125 "/>
<path fill-rule="nonzero" fill="rgb(1.199341%, 16.899109%, 27.49939%)" fill-opacity="1" d="M 118.496094 36.832031 L 117.664062 36.832031 L 117.664062 36.507812 C 117.664062 36.414062 117.585938 36.335938 117.492188 36.335938 L 113.9375 36.335938 C 113.84375 36.335938 113.769531 36.414062 113.769531 36.507812 L 113.769531 37.695312 C 113.769531 37.789062 113.84375 37.867188 113.9375 37.867188 L 117.492188 37.867188 C 118.050781 37.867188 118.496094 38.316406 118.496094 38.875 L 118.496094 40.0625 C 118.496094 40.621094 118.050781 41.066406 117.492188 41.066406 L 113.9375 41.066406 C 113.382812 41.066406 112.933594 40.621094 112.933594 40.0625 L 112.933594 39.738281 L 113.769531 39.738281 L 113.769531 40.0625 C 113.769531 40.15625 113.84375 40.230469 113.9375 40.230469 L 117.492188 40.230469 C 117.585938 40.230469 117.664062 40.15625 117.664062 40.0625 L 117.664062 38.875 C 117.664062 38.78125 117.585938 38.703125 117.492188 38.703125 L 113.9375 38.703125 C 113.382812 38.703125 112.933594 38.253906 112.933594 37.695312 L 112.933594 36.507812 C 112.933594 35.949219 113.382812 35.503906 113.9375 35.503906 L 117.492188 35.503906 C 118.050781 35.503906 118.496094 35.949219 118.496094 36.507812 L 118.496094 36.832031 "/>
<path fill-rule="nonzero" fill="rgb(1.199341%, 16.899109%, 27.49939%)" fill-opacity="1" d="M 120.542969 35.503906 L 121.378906 35.503906 L 121.378906 41.066406 L 120.542969 41.066406 L 120.542969 35.503906 "/>
<path fill-rule="nonzero" fill="rgb(1.199341%, 16.899109%, 27.49939%)" fill-opacity="1" d="M 128.316406 35.503906 L 128.316406 36.335938 L 125.949219 36.335938 L 125.949219 41.066406 L 125.113281 41.066406 L 125.113281 36.335938 L 122.75 36.335938 L 122.75 35.503906 L 128.316406 35.503906 "/>
<path fill-rule="nonzero" fill="rgb(1.199341%, 16.899109%, 27.49939%)" fill-opacity="1" d="M 134.863281 35.503906 L 132.296875 38.980469 L 132.296875 41.066406 L 131.460938 41.066406 L 131.460938 38.980469 L 128.898438 35.503906 L 129.878906 35.503906 L 131.878906 38.039062 L 133.875 35.503906 L 134.863281 35.503906 "/>
<path fill-rule="nonzero" fill="rgb(1.199341%, 16.899109%, 27.49939%)" fill-opacity="1" d="M 163.441406 36.335938 L 159.175781 36.335938 L 159.175781 37.867188 L 162.605469 37.867188 L 162.605469 38.703125 L 159.175781 38.703125 L 159.175781 40.230469 L 163.441406 40.230469 L 163.441406 41.066406 L 158.339844 41.066406 L 158.339844 35.503906 L 163.441406 35.503906 L 163.441406 36.335938 "/>
<path fill-rule="nonzero" fill="rgb(1.199341%, 16.899109%, 27.49939%)" fill-opacity="1" d="M 170.703125 36.832031 L 169.867188 36.832031 L 169.867188 36.507812 C 169.867188 36.414062 169.789062 36.335938 169.699219 36.335938 L 166.144531 36.335938 C 166.050781 36.335938 165.972656 36.414062 165.972656 36.507812 L 165.972656 37.695312 C 165.972656 37.789062 166.050781 37.867188 166.144531 37.867188 L 169.699219 37.867188 C 170.253906 37.867188 170.703125 38.316406 170.703125 38.875 L 170.703125 40.0625 C 170.703125 40.621094 170.253906 41.066406 169.699219 41.066406 L 166.144531 41.066406 C 165.585938 41.066406 165.140625 40.621094 165.140625 40.0625 L 165.140625 39.738281 L 165.972656 39.738281 L 165.972656 40.0625 C 165.972656 40.15625 166.050781 40.230469 166.144531 40.230469 L 169.699219 40.230469 C 169.789062 40.230469 169.867188 40.15625 169.867188 40.0625 L 169.867188 38.875 C 169.867188 38.78125 169.789062 38.703125 169.699219 38.703125 L 166.144531 38.703125 C 165.585938 38.703125 165.140625 38.253906 165.140625 37.695312 L 165.140625 36.507812 C 165.140625 35.949219 165.585938 35.503906 166.144531 35.503906 L 169.699219 35.503906 C 170.253906 35.503906 170.703125 35.949219 170.703125 36.507812 L 170.703125 36.832031 "/>
<path fill-rule="nonzero" fill="rgb(1.199341%, 16.899109%, 27.49939%)" fill-opacity="1" d="M 177.855469 36.335938 L 173.59375 36.335938 L 173.59375 37.867188 L 177.023438 37.867188 L 177.023438 38.703125 L 173.59375 38.703125 L 173.59375 40.230469 L 177.855469 40.230469 L 177.855469 41.066406 L 172.757812 41.066406 L 172.757812 35.503906 L 177.855469 35.503906 L 177.855469 36.335938 "/>
<path fill-rule="nonzero" fill="rgb(1.199341%, 16.899109%, 27.49939%)" fill-opacity="1" d="M 184.058594 38.285156 L 183.367188 36.507812 C 183.328125 36.398438 183.289062 36.335938 183.199219 36.335938 L 181.574219 36.335938 C 181.484375 36.335938 181.457031 36.386719 181.40625 36.507812 L 180.742188 38.285156 Z M 183.199219 35.503906 C 183.757812 35.503906 184.078125 35.925781 184.292969 36.507812 L 185.910156 41.066406 L 185.03125 41.066406 L 184.304688 39.117188 L 180.441406 39.117188 L 179.726562 41.066406 L 178.890625 41.066406 L 180.570312 36.507812 C 180.785156 35.882812 181.019531 35.503906 181.574219 35.503906 L 183.199219 35.503906 "/>
<path fill-rule="nonzero" fill="rgb(1.199341%, 16.899109%, 27.49939%)" fill-opacity="1" d="M 195.574219 36.335938 C 195.484375 36.335938 195.40625 36.414062 195.40625 36.507812 L 195.40625 40.0625 C 195.40625 40.15625 195.484375 40.230469 195.574219 40.230469 L 200.121094 40.230469 L 200.121094 41.066406 L 195.574219 41.066406 C 195.019531 41.066406 194.570312 40.621094 194.570312 40.0625 L 194.570312 36.507812 C 194.570312 35.949219 195.019531 35.503906 195.574219 35.503906 L 200.121094 35.503906 L 200.121094 36.335938 L 195.574219 36.335938 "/>
<path fill-rule="nonzero" fill="rgb(1.199341%, 16.899109%, 27.49939%)" fill-opacity="1" d="M 207.449219 35.503906 L 207.449219 41.066406 L 206.617188 41.066406 L 206.617188 38.703125 L 202.589844 38.703125 L 202.589844 41.066406 L 201.753906 41.066406 L 201.753906 35.503906 L 202.589844 35.503906 L 202.589844 37.867188 L 206.617188 37.867188 L 206.617188 35.503906 L 207.449219 35.503906 "/>
<path fill-rule="nonzero" fill="rgb(1.199341%, 16.899109%, 27.49939%)" fill-opacity="1" d="M 143.835938 40.066406 C 143.835938 40.160156 143.757812 40.238281 143.664062 40.238281 L 140.109375 40.238281 C 140.019531 40.238281 139.941406 40.160156 139.941406 40.066406 L 139.9375 38.40625 L 139.953125 38.339844 C 139.980469 38.277344 140.046875 38.234375 140.144531 38.234375 L 141.15625 38.234375 L 143.835938 39.925781 Z M 145.648438 40.246094 L 144.671875 39.628906 L 144.671875 38.035156 L 143.835938 38.035156 L 143.835938 39.105469 L 140.769531 37.1875 L 140.753906 37.175781 L 140.664062 37.027344 L 140.664062 36.519531 C 140.664062 36.425781 140.742188 36.347656 140.835938 36.347656 L 142.890625 36.347656 C 142.984375 36.347656 143.0625 36.425781 143.0625 36.519531 L 143.0625 36.886719 L 143.894531 36.886719 L 143.894531 36.339844 C 143.8125 35.867188 143.386719 35.503906 142.890625 35.503906 L 140.835938 35.503906 C 140.277344 35.503906 139.832031 35.953125 139.832031 36.507812 L 139.832031 37.136719 C 139.855469 37.421875 139.992188 37.519531 140.265625 37.679688 L 140.109375 37.679688 C 139.550781 37.679688 139.105469 37.84375 139.105469 38.402344 L 139.105469 40.066406 C 139.105469 40.625 139.550781 41.070312 140.109375 41.070312 L 143.664062 41.070312 C 144.097656 41.070312 144.46875 40.796875 144.609375 40.414062 L 145.648438 41.070312 L 145.648438 40.246094 "/>
<path fill-rule="nonzero" fill="rgb(1.199341%, 16.899109%, 27.49939%)" fill-opacity="1" d="M 67.152344 41.140625 C 67.6875 40.644531 65.949219 40.058594 65.949219 40.058594 C 65.949219 40.058594 64.085938 39.199219 56.6875 38.597656 L 56.6875 41.140625 L 45.246094 41.140625 L 45.246094 38.222656 C 42.964844 38.160156 38.464844 38.1875 35.320312 38.222656 L 35.320312 41.140625 L 23.914062 41.140625 L 23.914062 38.59375 C 18.957031 38.929688 15.695312 39.570312 15.695312 39.570312 L 15.078125 40.074219 C 14.460938 40.488281 15.089844 40.640625 15.511719 40.847656 C 15.675781 40.929688 15.683594 40.972656 15.625 41.140625 C 15.578125 41.273438 15.199219 41.351562 15.273438 41.582031 C 15.421875 42.0625 16.117188 41.601562 16.074219 42.234375 C 16.019531 42.976562 14.355469 42.558594 14.1875 43.25 C 14.058594 43.796875 14.804688 43.296875 14.792969 44.347656 C 14.785156 45.394531 15.550781 46.441406 17.703125 46.976562 C 18.214844 47.101562 20.609375 47.0625 19.378906 47.773438 C 19.230469 47.859375 18.734375 47.847656 18.570312 47.863281 C 18.332031 47.886719 17.792969 47.863281 17.640625 48.078125 C 17.410156 48.414062 17.90625 48.402344 17.828125 48.714844 C 17.546875 48.75 16.949219 48.742188 17.210938 49.21875 C 17.34375 49.460938 17.789062 49.59375 18.039062 49.578125 C 19.378906 49.507812 19.195312 49.625 19.605469 49.671875 C 18.863281 49.816406 18.183594 50.589844 21 50.515625 C 21.0625 50.941406 21.820312 50.898438 22.082031 50.84375 C 39.597656 46.960938 47.175781 48.617188 47.226562 47.539062 C 46.980469 47.011719 44.511719 47.066406 44.105469 47.050781 C 42.503906 46.972656 39.09375 47.140625 39.292969 46.730469 C 39.382812 45.769531 57.140625 46.007812 55.058594 46.605469 C 54.964844 46.632812 53.71875 46.839844 53.5625 46.921875 C 52.597656 47.4375 56.285156 47.539062 56.667969 47.574219 C 57.109375 47.613281 58.210938 47.582031 58.011719 48.058594 C 57.953125 48.207031 56.632812 48.042969 56.6875 48.257812 C 56.730469 48.429688 57.476562 48.335938 57.554688 48.457031 C 58.089844 49.296875 51.023438 48.878906 47.367188 48.957031 C 46.300781 48.980469 44.203125 49.097656 43.109375 49.246094 C 41.265625 49.496094 42.835938 49.929688 45.710938 50.195312 C 47.253906 50.335938 55.171875 50.972656 61.890625 51.855469 C 63.910156 52.222656 64.515625 51.230469 64.0625 50.960938 C 63.804688 50.804688 64.910156 50.246094 63.671875 49.71875 C 62.886719 49.382812 63.535156 49.246094 63.582031 49.261719 C 63.695312 49.296875 65.296875 49.679688 64.703125 49.140625 C 64.324219 48.792969 64.964844 48.996094 65.082031 48.988281 C 66.570312 48.875 66.222656 48.3125 66.320312 48.40625 C 65.875 47.96875 67.070312 47.652344 66.796875 46.683594 C 66.714844 46.398438 65 46.457031 66.125 46.21875 C 66.253906 46.191406 67.820312 46.234375 66.371094 45.382812 C 66.035156 45.1875 65.714844 45.175781 65.234375 45.066406 C 64.15625 44.824219 64.964844 44.285156 65.5 44.371094 C 66.152344 44.480469 66.808594 44.046875 66.699219 43.410156 C 66.5625 42.542969 66.265625 41.3125 67.152344 41.140625 "/>
<path fill-rule="nonzero" fill="rgb(4.299927%, 56.898499%, 27.099609%)" fill-opacity="1" d="M 25.617188 15.167969 L 25.617188 41.140625 L 35.320312 41.140625 L 35.320312 24.953125 L 45.246094 24.953125 L 45.246094 41.140625 L 54.949219 41.140625 L 54.949219 15.167969 L 25.617188 15.167969 "/>
</svg>
